<svg width="32.000000" height="32.000000" viewBox="0 0 32 32" fill="none" xmlns="http://www.w3.org/2000/svg" xmlns:xlink="http://www.w3.org/1999/xlink">
	<desc>
			Created with Pixso.
	</desc>
	<defs>
		<clipPath id="clip7_506">
			<rect id="apple" rx="-0.500000" width="31.000000" height="31.000000" transform="translate(0.500000 0.500000)" fill="white" fill-opacity="0"/>
		</clipPath>
	</defs>
	<rect id="apple" rx="-0.500000" width="31.000000" height="31.000000" transform="translate(0.500000 0.500000)" fill="#FFFFFF" fill-opacity="0"/>
	<g clip-path="url(#clip7_506)">
		<path id="bg" d="M30 16C30 23.72 23.73 30 16 30C8.26 30 2 23.72 2 16C2 8.26 8.26 2 16 2C23.73 2 30 8.26 30 16Z" fill="#283544" fill-opacity="1.000000" fill-rule="nonzero"/>
		<path id="apple" d="M22.56 12.45C22.48 12.5 20.66 13.44 20.66 15.52C20.75 17.9 22.96 18.74 23 18.74C22.96 18.78 22.66 19.87 21.79 21.02C21.09 22 20.32 23 19.15 23C18.03 23 17.63 22.34 16.35 22.34C14.97 22.34 14.58 23 13.52 23C12.35 23 11.52 21.95 10.79 20.97C9.83 19.69 9.02 17.69 9 15.76C8.98 14.74 9.19 13.74 9.72 12.89C10.47 11.7 11.81 10.89 13.28 10.86C14.4 10.83 15.4 11.58 16.09 11.58C16.75 11.58 17.98 10.86 19.37 10.86C19.97 10.86 21.57 11.03 22.56 12.45ZM16 10.66C15.8 9.73 16.35 8.8 16.86 8.2C17.52 7.48 18.56 7 19.45 7C19.51 7.93 19.15 8.84 18.5 9.51C17.92 10.23 16.92 10.77 16 10.66Z" fill="#FFFFFF" fill-opacity="1.000000" fill-rule="nonzero"/>
	</g>
</svg>
