<svg width="20.000000" height="20.000000" viewBox="0 0 20 20" fill="none" xmlns="http://www.w3.org/2000/svg" xmlns:xlink="http://www.w3.org/1999/xlink">
	<desc>
			Created with Pixso.
	</desc>
	<defs>
		<clipPath id="clip2_470">
			<rect id="download" rx="-0.500000" width="19.000000" height="19.000000" transform="translate(0.500000 0.500000)" fill="white" fill-opacity="0"/>
		</clipPath>
	</defs>
	<g clip-path="url(#clip2_470)">
		<path id="Icon" d="M17.5 12.5L17.5 13.5C17.5 14.9 17.5 15.6 17.22 16.13C16.98 16.6 16.6 16.98 16.13 17.22C15.6 17.5 14.9 17.5 13.5 17.5L6.5 17.5C5.09 17.5 4.39 17.5 3.86 17.22C3.39 16.98 3.01 16.6 2.77 16.13C2.5 15.6 2.5 14.9 2.5 13.5L2.5 12.5M14.16 8.33L10 12.5L5.83 8.33M10 2.5L10 12.5" stroke="#FFFFFF" stroke-opacity="1.000000" stroke-width="2.000000" stroke-linejoin="round" stroke-linecap="round"/>
	</g>
</svg>
