<svg width="32.000000" height="32.000000" viewBox="0 0 32 32" fill="none" xmlns="http://www.w3.org/2000/svg" xmlns:xlink="http://www.w3.org/1999/xlink">
	<desc>
			Created with Pixso.
	</desc>
	<defs/>
	<rect id="youtube" rx="-0.500000" width="31.000000" height="31.000000" transform="translate(0.500000 0.500000)" fill="#FFFFFF" fill-opacity="0"/>
	<path id="bg" d="M2.24 9.94C2.37 7.96 3.96 6.41 5.94 6.31C8.81 6.17 12.91 6 16 6C19.08 6 23.18 6.17 26.05 6.31C28.03 6.41 29.62 7.96 29.75 9.94C29.87 11.83 30 14.16 30 16C30 17.83 29.87 20.16 29.75 22.05C29.62 24.03 28.03 25.58 26.05 25.68C23.18 25.82 19.08 26 16 26C12.91 26 8.81 25.82 5.94 25.68C3.96 25.58 2.37 24.03 2.24 22.05C2.12 20.16 2 17.83 2 16C2 14.16 2.12 11.83 2.24 9.94Z" fill="#FC0D1B" fill-opacity="1.000000" fill-rule="evenodd"/>
	<path id="play" d="M13 20L13 12L21 16L13 20Z" fill="#FFFFFF" fill-opacity="1.000000" fill-rule="evenodd"/>
</svg>
